<?xml version="1.0" encoding="UTF-8"?>
<!DOCTYPE svg PUBLIC "-//W3C//DTD SVG 1.1//EN" "http://www.w3.org/Graphics/SVG/1.1/DTD/svg11.dtd">
<svg version="1.1" xmlns="http://www.w3.org/2000/svg" xmlns:xlink="http://www.w3.org/1999/xlink" width="62" height="20"  xml:space="preserve" id="sharedTweetButton">
    <!-- Generated by PaintCode (www.paintcodeapp.com) -->
    <rect id="sharedTweetButton-rectangle" stroke="none" fill="rgb(27, 149, 224)" x="0" y="0" width="62" height="20" rx="3" />
    <path id="sharedTweetButton-bezier" stroke="none" fill="rgb(255, 255, 255)" d="M 15.52,5.34 C 14.22,5.34 13.16,6.38 13.16,7.67 13.16,7.85 13.18,8.03 13.22,8.2 11.26,8.1 9.52,7.17 8.35,5.77 8.15,6.11 8.03,6.51 8.03,6.94 8.03,7.74 8.45,8.45 9.08,8.87 8.7,8.86 8.33,8.76 8.01,8.58 8.01,8.59 8.01,8.6 8.01,8.61 8.01,9.74 8.83,10.68 9.91,10.89 9.71,10.94 9.5,10.97 9.29,10.97 9.13,10.97 8.99,10.96 8.84,10.93 9.14,11.85 10.01,12.53 11.05,12.55 10.24,13.17 9.22,13.54 8.11,13.54 7.92,13.54 7.74,13.53 7.55,13.51 8.6,14.17 9.84,14.55 11.17,14.55 15.52,14.55 17.89,11.01 17.89,7.94 17.89,7.84 17.89,7.74 17.89,7.64 18.35,7.31 18.75,6.9 19.06,6.43 18.64,6.62 18.19,6.74 17.71,6.8 18.19,6.51 18.57,6.05 18.75,5.51 18.29,5.78 17.78,5.97 17.25,6.08 16.82,5.62 16.2,5.34 15.52,5.34 Z M 15.52,5.34" />
    
    <text  fill="rgb(255, 255, 255)" font-family="HelveticaNeue-Bold, 'Helvetica Neue', Helvetica, Arial, sans-serif" font-weight="bold" font-size="11" x="23" y="3"><tspan x="23" y="14">Tweet</tspan></text>
</svg>
