<?xml version="1.0" encoding="UTF-8"?>
<!DOCTYPE svg PUBLIC "-//W3C//DTD SVG 1.1//EN" "http://www.w3.org/Graphics/SVG/1.1/DTD/svg11.dtd">
<svg version="1.1" xmlns="http://www.w3.org/2000/svg" xmlns:xlink="http://www.w3.org/1999/xlink" width="200" height="200"  xml:space="preserve" id="sharedLogoStandard">
    <!-- Generated by PaintCode (www.paintcodeapp.com) -->
    <g id="sharedLogoStandard-group2">
        <path id="sharedLogoStandard-bezier13" stroke="none" fill="rgb(247, 247, 249)" d="M 105.04,146.79 C 104.51,146.26 79.02,120.77 79.02,120.77 L 62.19,103.94 57.8,99.56 46.49,88.24 C 38.68,80.43 38.68,67.77 46.49,59.96 54.3,52.15 66.96,52.15 74.77,59.96 L 86.09,71.27 90.47,75.66 107.3,92.49 120.03,79.76 C 127.84,71.95 140.5,71.95 148.31,79.76 156.12,87.57 156.12,100.23 148.31,108.04 L 135.58,120.77 C 135.58,120.77 135.06,121.29 134.17,122.18 129.03,127.33 111.5,144.85 109.56,146.79 107.92,148.43 106.44,148.2 105.04,146.79 Z M 105.04,146.79" />
        <path id="sharedLogoStandard-bezier5" stroke="rgb(247, 247, 249)" stroke-width="0.75" stroke-miterlimit="10" fill="rgb(0, 0, 0)" d="M 74.77,83.96 C 76.43,83.75 78.17,84.28 79.44,85.56 81.63,87.74 81.63,91.29 79.44,93.48 77.25,95.66 73.71,95.66 71.52,93.48 70.24,92.2 69.71,90.46 69.93,88.8 70.08,87.61 68.74,86.92 67.67,87.99 63.22,92.45 59.5,96.16 59.5,96.16 58.56,97.1 57.04,97.1 56.1,96.16 L 47.76,87.82 47.76,87.82 47.76,87.82 C 39.95,80.01 39.53,68.62 47.34,60.81 55.15,53 66.54,53.42 74.35,61.23 L 74.35,61.23 82.69,69.58 C 83.63,70.51 83.63,72.03 82.69,72.97 82.69,72.97 78.63,77.03 73.9,81.76 72.94,82.72 73.58,84.11 74.77,83.96 Z M 74.77,83.96" />
        <path id="sharedLogoStandard-bezier7" stroke="rgb(247, 247, 249)" stroke-width="0.75" stroke-miterlimit="10" fill="rgb(0, 0, 0)" d="M 105.6,145.66 L 82.41,122.47 C 81.47,121.53 81.47,120.01 82.41,119.07 82.41,119.07 86.07,115.41 90.48,111 91.54,109.94 90.94,108.5 89.74,108.65 88.09,108.85 86.37,108.32 85.1,107.05 82.91,104.86 82.91,101.32 85.1,99.13 87.28,96.95 90.83,96.95 93.02,99.13 94.28,100.4 94.82,102.12 94.62,103.77 94.47,104.97 95.91,105.57 96.96,104.52 101.62,99.86 105.6,95.88 105.6,95.88 106.54,94.94 108.06,94.94 109,95.88 L 111.7,98.58 C 112.59,99.48 114.15,99 114.06,97.86 113.93,96.44 114.42,94.98 115.5,93.9 117.45,91.95 120.62,91.95 122.57,93.9 124.53,95.85 124.53,99.02 122.57,100.97 121.49,102.06 120.03,102.54 118.61,102.42 117.48,102.32 116.82,103.71 117.88,104.77 119.66,106.54 121.53,108.41 123.3,110.18 124.38,111.26 125.75,110.6 125.65,109.47 125.53,108.05 126.01,106.58 127.1,105.5 129.05,103.54 132.22,103.54 134.17,105.5 136.12,107.45 136.12,110.61 134.17,112.57 133.07,113.67 131.58,114.15 130.15,114.01 129.03,113.9 128.59,115.47 129.47,116.35 131.13,118.02 132.19,119.07 132.19,119.07 133.13,120.01 133.13,121.53 132.19,122.47 L 109,145.66 C 108.06,146.6 106.54,146.6 105.6,145.66 Z M 105.6,145.66" />
        <path id="sharedLogoStandard-bezier9" stroke="rgb(247, 247, 249)" stroke-width="0.75" stroke-miterlimit="10" fill="rgb(0, 0, 0)" d="M 93.86,98.28 C 91.21,95.63 86.9,95.63 84.25,98.28 81.59,100.94 81.59,105.24 84.25,107.9 85.8,109.46 87.93,110.1 89.95,109.83 L 81.56,118.22 C 80.62,119.16 79.1,119.16 78.17,118.22 L 60.35,100.4 C 59.41,99.47 59.41,97.95 60.35,97.01 L 68.74,88.62 C 68.47,90.64 69.11,92.77 70.67,94.32 73.33,96.98 77.63,96.98 80.29,94.32 82.94,91.67 82.94,87.36 80.29,84.71 78.73,83.15 76.61,82.51 74.58,82.78 L 83.54,73.82 C 84.48,72.88 86,72.88 86.93,73.82 L 104.75,91.64 C 105.69,92.57 105.69,94.09 104.75,95.03 L 95.8,103.99 C 96.06,101.96 95.42,99.84 93.86,98.28 Z M 93.86,98.28" />
        <path id="sharedLogoStandard-bezier11" stroke="rgb(247, 247, 249)" stroke-width="0.75" stroke-miterlimit="10" fill="rgb(0, 0, 0)" d="M 133.04,118.22 L 130.01,115.2 C 131.8,115.38 133.65,114.78 135.02,113.42 137.44,110.99 137.44,107.07 135.02,104.65 132.6,102.23 128.67,102.23 126.25,104.65 124.88,106.02 124.29,107.86 124.47,109.65 L 118.42,103.6 C 120.2,103.78 122.05,103.19 123.42,101.82 125.84,99.4 125.84,95.47 123.42,93.05 121,90.63 117.07,90.63 114.65,93.05 113.28,94.42 112.69,96.27 112.87,98.05 L 109.85,95.03 C 108.91,94.09 108.91,92.57 109.85,91.64 L 120.45,81.03 C 128.26,73.22 139.65,72.8 147.46,80.61 155.27,88.42 154.85,99.81 147.04,107.62 L 147.04,107.62 136.43,118.22 C 135.49,119.16 133.98,119.16 133.04,118.22 Z M 133.04,118.22" />
    </g>
</svg>
